<?xml version="1.0" standalone="no"?> <!DOCTYPE svg PUBLIC "-//W3C//DTD SVG 1.0//EN" "http://www.w3.org/TR/2001/REC-SVG-20010904/DTD/svg10.dtd" > <svg xmlns="http://www.w3.org/2000/svg" width="100%" height="100%">
<defs >
<font horiz-adv-x="247" ><font-face
    font-family="Tall Dark And Handsome"
    units-per-em="1000"
    panose-1="0 0 0 0 0 0 0 0 0 0"
    ascent="701"
    descent="-1"
    alphabetic="0" />
<missing-glyph horiz-adv-x="500" />
<glyph unicode=" " glyph-name="space" horiz-adv-x="234" />
<glyph unicode="!" glyph-name="exclam" horiz-adv-x="88" d="M72 58H14V0H72V58V58ZM72 700H14V117H72V700V700Z" />
<glyph unicode="&quot;" glyph-name="quotedbl" horiz-adv-x="208" d="M74 700H16V525H74V700V700ZM191 700H133V525H191V700V700Z" />
<glyph unicode="#" glyph-name="numbersign" horiz-adv-x="255" d="M244 496H215V700H157V496H98V700H40V496H11V437H40V262H11V204H40V0H98V204H157V0H215V204H244V262H215V437H244V496V496ZM157 262H98V437H157V262V262Z" />
<glyph unicode="$" glyph-name="dollar" horiz-adv-x="253" d="M243 525V554Q243 591 218 616Q192 642 156 642V700H98V642Q62 642 36 616T10 554V525Q9 392 96 333Q96 333 98 331V124Q90 129 86 134Q68 150 68 175H10V146Q10 110 36 84T98 58V0H156V58Q192 58
218 84Q243 109 243 146V175Q245 309 158 367L156 369V576Q159 574 162 572T168 566Q185 549 185 525H243ZM86 566Q90 571 98 576V422Q70 459 70 496L68 525Q68 549 86 566ZM168 134Q164 130 156 124V278Q183 243 184 204L185 175Q185 151 168 134Z" />
<glyph unicode="%" glyph-name="percent" horiz-adv-x="255" d="M244 700H186L11 0H69L244 700ZM98 671Q98 684 90 691Q81 700 69 700H40Q27 700 20 691Q11 683 11 671V642Q11 630 20 621Q27 612 40 612H69Q81 612 90 621Q98 629 98 642V671ZM236 79Q228 87 215
87H186Q173 87 165 79Q157 69 157 58V29Q157 17 165 9Q174 0 186 0H215Q227 0 236 9Q244 16 244 29V58Q244 71 236 79Z" />
<glyph unicode="&amp;" glyph-name="ampersand" horiz-adv-x="317" d="M248 612Q248 649 223 674Q197 700 161 700H102Q67 700 41 674T15 612V393Q15 375 28 363Q29 361 30 361T33 358Q44 350 58 350Q45 350 32 342Q31 340 30 340T28 337Q15 325 15 307V87Q15
52 41 26T102 0H307V58H277L307 87L263 131L248 117V307Q248 325 236 337L231 342Q220 350 206 350Q218 350 231 358Q232 360 233 360T236 363Q248 375 248 393V612ZM132 642Q156 642 173 625Q190 606 190 583V437Q190 415 173 396Q156 379 132 379Q109 379 90
396Q73 415 73 437V583Q73 606 90 625Q109 642 132 642ZM73 262Q73 285 90 304Q109 321 132 321Q156 321 173 304Q190 285 190 262V117Q190 94 173 75Q156 58 132 58Q109 58 90 75Q73 94 73 117V262Z" />
<glyph unicode="&apos;" glyph-name="quotesingle" horiz-adv-x="92" d="M74 700H16V525H74V700V700Z" />
<glyph unicode="(" glyph-name="parenleft" horiz-adv-x="141" d="M132 642V700H102Q67 700 41 674T15 612V87Q15 52 41 26T102 0H132V58Q109 58 90 75Q73 94 73 117V583Q73 606 90 625Q109 642 132 642Z" />
<glyph unicode=")" glyph-name="parenright" horiz-adv-x="141" d="M37 700H8V642Q32 642 49 625T66 583V117Q66 92 49 75T8 58V0H37Q73 0 99 26T125 87V612Q125 648 99 674T37 700Z" />
<glyph unicode="*" glyph-name="asterisk" horiz-adv-x="251" d="M242 583V642H155V700H96V642H9V583H67L22 517L67 486L126 554L184 486L230 517L184 583H242V583Z" />
<glyph unicode="+" glyph-name="plus" horiz-adv-x="242" d="M237 87V146H150V233H91V146H4V87H91V0H150V87H237V87Z" />
<glyph unicode="," glyph-name="comma" horiz-adv-x="86" d="M15 29H44L15 0H44L73 29V87H15V29V29Z" />
<glyph unicode="-" glyph-name="hyphen" horiz-adv-x="266" d="M249 87V146H16V87H249V87Z" />
<glyph unicode="." glyph-name="period" horiz-adv-x="92" d="M74 58H16V0H74V58V58Z" />
<glyph unicode="/" glyph-name="slash" horiz-adv-x="237" d="M235 700H177L2 0H60L235 700V700Z" />
<glyph unicode="0" glyph-name="zero" horiz-adv-x="264" d="M248 612Q248 649 223 674Q197 700 161 700H102Q67 700 41 674T15 612V87Q15 52 41 26T102 0H161Q197 0 223 26Q248 51 248 87V612ZM132 642Q156 642 173 625Q190 606 190 583V117Q190 94 173 75Q156
58 132 58Q109 58 90 75Q73 94 73 117V583Q73 606 90 625Q109 642 132 642Z" />
<glyph unicode="1" glyph-name="one" horiz-adv-x="165" d="M89 700L2 642V577L89 636V0H148V700H89V700Z" />
<glyph unicode="2" glyph-name="two" horiz-adv-x="259" d="M248 612Q248 649 223 674Q197 700 161 700H102Q67 700 41 674T15 612V525H73V583Q73 606 90 625Q109 642 132 642Q156 642 173 625Q190 606 190 583L189 525V496Q187 473 179 453L15 64V0H248V58H73L227
408Q238 433 243 462T248 525V612Z" />
<glyph unicode="3" glyph-name="three" horiz-adv-x="263" d="M247 612Q247 649 222 674Q196 700 160 700H101Q66 700 40 674T14 612V525H72V583Q72 606 89 625Q108 642 131 642Q155 642 172 625Q189 606 189 583V437Q189 415 172 396Q155 379 131 379H101V321H131Q155
321 172 304Q189 285 189 262V117Q189 94 172 75Q155 58 131 58Q108 58 89 75Q72 94 72 117V175H14V87Q14 52 40 26T101 0H160Q196 0 222 26Q247 51 247 87V307Q247 325 235 337L230 342Q219 350 205 350Q217 350 230 358Q231 360 232 360T235 363Q247 375 247
393V612Z" />
<glyph unicode="4" glyph-name="four" horiz-adv-x="243" d="M179 700H121L4 233V175H121V0H179V175H237V233H179V700V700ZM121 233H62L121 476V233V233Z" />
<glyph unicode="5" glyph-name="five" horiz-adv-x="259" d="M248 642V700H15V379H132Q156 379 173 362T190 321V117Q190 94 173 75Q156 58 132 58Q109 58 90 75Q73 94 73 117V175H15V87Q15 52 41 26T102 0H161Q197 0 223 26Q248 51 248 87V352Q248 385 223 412Q198
437 161 437H73V642H248Z" />
<glyph unicode="6" glyph-name="six" horiz-adv-x="263" d="M248 612Q248 649 223 674Q197 700 161 700H102Q67 700 41 674T15 612V87Q15 52 41 26T102 0H161Q197 0 223 26Q248 51 248 87V352Q248 385 223 412Q208 427 190 433Q178 437 161 437H73V583Q73 606
90 625Q109 642 132 642Q156 642 173 625Q190 606 190 583V525H248V612ZM132 379Q156 379 173 362T190 321V117Q190 94 173 75Q156 58 132 58Q109 58 90 75Q73 94 73 117V379H132Z" />
<glyph unicode="7" glyph-name="seven" horiz-adv-x="243" d="M8 700V642H168L8 0H66L241 700H8V700Z" />
<glyph unicode="8" glyph-name="eight" horiz-adv-x="264" d="M248 612Q248 649 223 674Q197 700 161 700H102Q67 700 41 674T15 612V393Q15 375 28 363Q29 361 30 361T33 358Q44 350 58 350Q45 350 32 342Q31 340 30 340T28 337Q15 325 15 307V87Q15 52 41 26T102
0H161Q197 0 223 26Q248 51 248 87V307Q248 325 236 337L231 342Q220 350 206 350Q218 350 231 358Q232 360 233 360T236 363Q248 375 248 393V612ZM132 642Q156 642 173 625Q190 606 190 583V437Q190 415 173 396Q156 379 132 379Q109 379 90 396Q73 415 73 437V583Q73
606 90 625Q109 642 132 642ZM73 262Q73 285 90 304Q109 321 132 321Q156 321 173 304Q190 285 190 262V117Q190 94 173 75Q156 58 132 58Q109 58 90 75Q73 94 73 117V262Z" />
<glyph unicode="9" glyph-name="nine" horiz-adv-x="264" d="M248 612Q248 649 223 674Q197 700 161 700H102Q67 700 41 674T15 612V348Q15 314 41 288Q54 273 73 267Q88 262 102 262H190V117Q190 94 173 75Q156 58 132 58Q109 58 90 75Q73 94 73 117V175H15V87Q15
52 41 26T102 0H161Q197 0 223 26Q248 51 248 87V612ZM132 642Q156 642 173 625Q190 606 190 583V321H132Q109 321 90 338Q73 355 73 379V583Q73 606 90 625Q109 642 132 642Z" />
<glyph unicode=":" glyph-name="colon" horiz-adv-x="83" d="M74 58H16V0H74V58V58ZM74 175H16V117H74V175V175Z" />
<glyph unicode=";" glyph-name="semicolon" horiz-adv-x="87" d="M72 146V204H14V146H72V146ZM14 29H43L14 0H43L72 29V87H14V29V29Z" />
<glyph unicode="&lt;" glyph-name="less" horiz-adv-x="244" d="M233 482V554L0 350L233 146V218L87 350L233 482V482Z" />
<glyph unicode="=" glyph-name="equal" horiz-adv-x="257" d="M249 119V178H16V119H249V119ZM249 58H16V0H249V58V58Z" />
<glyph unicode="&gt;" glyph-name="greater" horiz-adv-x="249" d="M16 554V482L162 350L16 218V146L249 350L16 554V554Z" />
<glyph unicode="?" glyph-name="question" d="M68 58H10V0H68V58ZM243 612Q243 649 218 674Q192 700 156 700H97Q62 700 36 674T10 612V525H68V583Q68 606 85 625Q104 642 127 642Q151 642 168 625Q185 606 185 583V379Q185 355 168 338T127 321H97Q62 321 36
295T10 233V117H68V204Q68 228 85 245T127 262H156Q192 262 218 288Q243 315 243 348V612Z" />
<glyph unicode="@" glyph-name="at" horiz-adv-x="264" d="M248 612Q248 649 223 674Q197 700 161 700H102Q67 700 41 674T15 612V87Q15 52 41 26T102 0H248V58H132Q109 58 90 75Q73 94 73 117V583Q73 606 90 625Q109 642 132 642Q156 642 173 625Q190 606 190
583V160Q190 156 186 150Q182 146 176 146H175Q169 146 165 150T161 160V583Q161 595 152 604Q145 612 132 612Q119 612 111 604Q102 595 102 583V117Q102 105 111 96T132 87H219Q231 87 240 96Q248 106 248 116V612Z" />
<glyph unicode="A" glyph-name="A" horiz-adv-x="248" d="M153 700H94L7 0H71L90 175H158L176 0H240L153 700V700ZM152 233H96L124 499L152 233V233Z" />
<glyph unicode="B" glyph-name="B" horiz-adv-x="265" d="M249 612Q249 649 224 674Q198 700 162 700H16V0H162Q198 0 224 26Q249 51 249 87V307Q249 325 237 337L232 342Q221 350 207 350Q219 350 232 358Q233 360 234 360T237 363Q249 375 249 393V612ZM133
642Q157 642 174 625Q191 606 191 583V437Q191 415 174 396Q157 379 133 379H74V642H133ZM174 304Q191 285 191 262V117Q191 94 174 75Q157 58 133 58H74V321H133Q157 321 174 304Z" />
<glyph unicode="C" glyph-name="C" horiz-adv-x="263" d="M248 612Q248 649 223 674Q197 700 161 700H102Q67 700 41 674T15 612V87Q15 52 41 26T102 0H161Q197 0 223 26Q248 51 248 87V175H190V117Q190 94 173 75Q156 58 132 58Q109 58 90 75Q73 94 73 117V583Q73
606 90 625Q109 642 132 642Q156 642 173 625Q190 606 190 583V525H248V612Z" />
<glyph unicode="D" glyph-name="D" horiz-adv-x="265" d="M249 612Q249 649 224 674Q198 700 162 700H16V0H162Q198 0 224 26Q249 51 249 87V612ZM133 642Q157 642 174 625Q191 606 191 583V117Q191 94 174 75Q157 58 133 58H74V642H133Z" />
<glyph unicode="E" glyph-name="E" horiz-adv-x="253" d="M249 642V700H16V0H249V58H74V321H249V379H74V642H249V642Z" />
<glyph unicode="F" glyph-name="F" horiz-adv-x="249" d="M249 642V700H16V0H74V321H249V379H74V642H249V642Z" />
<glyph unicode="G" glyph-name="G" horiz-adv-x="263" d="M248 612Q248 649 223 674Q197 700 161 700H102Q67 700 41 674T15 612V87Q15 52 41 26T102 0H161Q197 0 223 26Q248 51 248 87V350H132V292H190V117Q190 94 173 75Q156 58 132 58Q109 58 90 75Q73 94 73
117V583Q73 606 90 625Q109 642 132 642Q156 642 173 625Q190 606 190 583V525H248V612Z" />
<glyph unicode="H" glyph-name="H" horiz-adv-x="266" d="M74 700H16V0H74V321H191V0H249V700H191V379H74V700V700Z" />
<glyph unicode="I" glyph-name="I" horiz-adv-x="92" d="M74 700H16V0H74V700V700Z" />
<glyph unicode="J" glyph-name="J" horiz-adv-x="251" d="M235 700H177V117Q177 94 160 75Q143 58 119 58Q96 58 77 75Q60 94 60 117V175H2V87Q2 52 28 26T89 0H148Q184 0 210 26Q235 51 235 87V700Z" />
<glyph unicode="K" glyph-name="K" horiz-adv-x="262" d="M74 700H16V0H74V332L185 0H249L133 350L249 700H185L74 367V700V700Z" />
<glyph unicode="L" glyph-name="L" horiz-adv-x="249" d="M74 700H16V0H249V58H74V700V700Z" />
<glyph unicode="M" glyph-name="M" horiz-adv-x="324" d="M308 700H214L162 204L109 700H16V0H74V467L133 0H191L249 467V0H308V700V700Z" />
<glyph unicode="N" glyph-name="N" horiz-adv-x="266" d="M106 700H16V0H74V521L159 0H249V700H191V180L106 700V700Z" />
<glyph unicode="O" glyph-name="O" horiz-adv-x="264" d="M248 612Q248 649 223 674Q197 700 161 700H102Q67 700 41 674T15 612V87Q15 52 41 26T102 0H161Q197 0 223 26Q248 51 248 87V612ZM132 642Q156 642 173 625Q190 606 190 583V117Q190 94 173 75Q156 58
132 58Q109 58 90 75Q73 94 73 117V583Q73 606 90 625Q109 642 132 642Z" />
<glyph unicode="P" glyph-name="P" horiz-adv-x="253" d="M249 612Q249 649 224 674Q198 700 162 700H16V0H74V321H162Q199 321 224 346Q249 372 249 408V612ZM133 642Q157 642 174 625Q191 606 191 583V437Q191 415 174 396Q157 379 133 379H74V642H133Z" />
<glyph unicode="Q" glyph-name="Q" horiz-adv-x="316" d="M249 612Q249 649 224 674Q198 700 162 700H103Q68 700 42 674T16 612V87Q16 52 42 26T103 0H308V58H245Q249 70 249 87V612ZM133 642Q157 642 174 625Q191 606 191 583V117Q191 94 174 75Q157 58 133
58Q110 58 91 75Q74 94 74 117V583Q74 606 91 625Q110 642 133 642Z" />
<glyph unicode="R" glyph-name="R" horiz-adv-x="265" d="M249 612Q249 649 224 674Q198 700 162 700H16V0H74V321H133Q157 321 174 304Q191 285 191 262V0H249V307Q249 325 237 337L232 342Q221 350 207 350Q219 350 232 358Q233 360 234 360T237 363Q249 375
249 393V612ZM133 642Q157 642 174 625Q191 606 191 583V437Q191 415 174 396Q157 379 133 379H74V642H133Z" />
<glyph unicode="S" glyph-name="S" horiz-adv-x="263" d="M248 612Q248 649 223 674Q197 700 161 700H103Q67 700 41 674T15 612V525Q14 392 101 333Q188 272 189 204L190 175V117Q190 94 173 75Q156 58 132 58Q108 58 91 75Q73 93 73 117V175H15V87Q15 52 41
26T103 0H161Q197 0 223 26Q248 51 248 87V175Q250 309 163 367Q77 427 75 496V525L73 583Q73 607 91 625Q108 642 132 642Q156 642 173 625Q190 606 190 583V525H248V612Z" />
<glyph unicode="T" glyph-name="T" horiz-adv-x="242" d="M237 642V700H4V642H91V0H150V642H237V642Z" />
<glyph unicode="U" glyph-name="U" horiz-adv-x="265" d="M74 700H16V87Q16 52 42 26T103 0H162Q198 0 224 26Q249 51 249 87V700H191V117Q191 94 174 75Q157 58 133 58Q110 58 91 75Q74 94 74 117V700Z" />
<glyph unicode="V" glyph-name="V" horiz-adv-x="248" d="M71 700H7L94 0H153L240 700H176L124 204L71 700V700Z" />
<glyph unicode="W" glyph-name="W" horiz-adv-x="424" d="M75 700H11L98 0H157L212 443L268 0H326L413 700H349L297 204L244 700H180L128 204L75 700V700Z" />
<glyph unicode="X" glyph-name="X" horiz-adv-x="259" d="M74 700H13L99 350L13 0H74L130 225L185 0H246L160 350L246 700H185L130 475L74 700V700Z" />
<glyph unicode="Y" glyph-name="Y" horiz-adv-x="245" d="M67 700H6L93 350V0H152V350L239 700H178L123 475L67 700V700Z" />
<glyph unicode="Z" glyph-name="Z" horiz-adv-x="250" d="M8 700V642H166L8 0H241V58H84L241 700H8V700Z" />
<glyph unicode="[" glyph-name="bracketleft" horiz-adv-x="140" d="M133 642V700H16V0H133V58H74V642H133V642Z" />
<glyph unicode="\" glyph-name="backslash" horiz-adv-x="237" d="M60 700H2L177 0H235L60 700V700Z" />
<glyph unicode="]" glyph-name="bracketright" horiz-adv-x="140" d="M6 642H64V58H6V0H123V700H6V642V642Z" />
<glyph unicode="^" glyph-name="asciicircum" horiz-adv-x="245" d="M6 437H64L123 583L181 437H239L123 700L6 437V437Z" />
<glyph unicode="_" glyph-name="underscore" horiz-adv-x="266" d="M249 58H16V0H249V58V58Z" />
<glyph unicode="`" glyph-name="grave" horiz-adv-x="129" d="M64 583H122L64 700H5L64 583V583Z" />
<glyph unicode="a" glyph-name="a" horiz-adv-x="249" d="M154 700H95L8 0H72L91 175H159L177 0H241L154 700V700ZM153 233H97L125 499L153 233V233Z" />
<glyph unicode="b" glyph-name="b" horiz-adv-x="265" d="M249 612Q249 649 224 674Q198 700 162 700H16V0H162Q198 0 224 26Q249 51 249 87V307Q249 325 237 337L232 342Q221 350 207 350Q219 350 232 358Q233 360 234 360T237 363Q249 375 249 393V612ZM133
642Q157 642 174 625Q191 606 191 583V437Q191 415 174 396Q157 379 133 379H74V642H133ZM174 304Q191 285 191 262V117Q191 94 174 75Q157 58 133 58H74V321H133Q157 321 174 304Z" />
<glyph unicode="c" glyph-name="c" horiz-adv-x="263" d="M248 612Q248 649 223 674Q197 700 161 700H102Q67 700 41 674T15 612V87Q15 52 41 26T102 0H161Q197 0 223 26Q248 51 248 87V175H190V117Q190 94 173 75Q156 58 132 58Q109 58 90 75Q73 94 73 117V583Q73
606 90 625Q109 642 132 642Q156 642 173 625Q190 606 190 583V525H248V612Z" />
<glyph unicode="d" glyph-name="d" horiz-adv-x="265" d="M249 612Q249 649 224 674Q198 700 162 700H16V0H162Q198 0 224 26Q249 51 249 87V612ZM133 642Q157 642 174 625Q191 606 191 583V117Q191 94 174 75Q157 58 133 58H74V642H133Z" />
<glyph unicode="e" glyph-name="e" horiz-adv-x="253" d="M249 642V700H16V0H249V58H74V321H249V379H74V642H249V642Z" />
<glyph unicode="f" glyph-name="f" horiz-adv-x="249" d="M249 642V700H16V0H74V321H249V379H74V642H249V642Z" />
<glyph unicode="g" glyph-name="g" horiz-adv-x="263" d="M248 612Q248 649 223 674Q197 700 161 700H102Q67 700 41 674T15 612V87Q15 52 41 26T102 0H161Q197 0 223 26Q248 51 248 87V350H132V292H190V117Q190 94 173 75Q156 58 132 58Q109 58 90 75Q73 94 73
117V583Q73 606 90 625Q109 642 132 642Q156 642 173 625Q190 606 190 583V525H248V612Z" />
<glyph unicode="h" glyph-name="h" horiz-adv-x="266" d="M74 700H16V0H74V321H191V0H249V700H191V379H74V700V700Z" />
<glyph unicode="i" glyph-name="i" horiz-adv-x="92" d="M74 700H16V0H74V700V700Z" />
<glyph unicode="j" glyph-name="j" horiz-adv-x="251" d="M235 700H177V117Q177 94 160 75Q143 58 119 58Q96 58 77 75Q60 94 60 117V175H2V87Q2 52 28 26T89 0H148Q184 0 210 26Q235 51 235 87V700Z" />
<glyph unicode="k" glyph-name="k" horiz-adv-x="262" d="M74 700H16V0H74V332L185 0H249L133 350L249 700H185L74 367V700V700Z" />
<glyph unicode="l" glyph-name="l" horiz-adv-x="249" d="M74 700H16V0H249V58H74V700V700Z" />
<glyph unicode="m" glyph-name="m" horiz-adv-x="324" d="M308 700H214L162 204L109 700H16V0H74V467L133 0H191L249 467V0H308V700V700Z" />
<glyph unicode="n" glyph-name="n" horiz-adv-x="266" d="M106 700H16V0H74V521L159 0H249V700H191V180L106 700V700Z" />
<glyph unicode="o" glyph-name="o" horiz-adv-x="264" d="M248 612Q248 649 223 674Q197 700 161 700H102Q67 700 41 674T15 612V87Q15 52 41 26T102 0H161Q197 0 223 26Q248 51 248 87V612ZM132 642Q156 642 173 625Q190 606 190 583V117Q190 94 173 75Q156 58
132 58Q109 58 90 75Q73 94 73 117V583Q73 606 90 625Q109 642 132 642Z" />
<glyph unicode="p" glyph-name="p" horiz-adv-x="253" d="M249 612Q249 649 224 674Q198 700 162 700H16V0H74V321H162Q199 321 224 346Q249 372 249 408V612ZM133 642Q157 642 174 625Q191 606 191 583V437Q191 415 174 396Q157 379 133 379H74V642H133Z" />
<glyph unicode="q" glyph-name="q" horiz-adv-x="316" d="M249 612Q249 649 224 674Q198 700 162 700H103Q68 700 42 674T16 612V87Q16 52 42 26T103 0H308V58H245Q249 70 249 87V612ZM133 642Q157 642 174 625Q191 606 191 583V117Q191 94 174 75Q157 58 133
58Q110 58 91 75Q74 94 74 117V583Q74 606 91 625Q110 642 133 642Z" />
<glyph unicode="r" glyph-name="r" horiz-adv-x="265" d="M249 612Q249 649 224 674Q198 700 162 700H16V0H74V321H133Q157 321 174 304Q191 285 191 262V0H249V307Q249 325 237 337L232 342Q221 350 207 350Q219 350 232 358Q233 360 234 360T237 363Q249 375
249 393V612ZM133 642Q157 642 174 625Q191 606 191 583V437Q191 415 174 396Q157 379 133 379H74V642H133Z" />
<glyph unicode="s" glyph-name="s" horiz-adv-x="263" d="M248 612Q248 649 223 674Q197 700 161 700H103Q67 700 41 674T15 612V525Q14 392 101 333Q188 272 189 204L190 175V117Q190 94 173 75Q156 58 132 58Q108 58 91 75Q73 93 73 117V175H15V87Q15 52 41
26T103 0H161Q197 0 223 26Q248 51 248 87V175Q250 309 163 367Q77 427 75 496V525L73 583Q73 607 91 625Q108 642 132 642Q156 642 173 625Q190 606 190 583V525H248V612Z" />
<glyph unicode="t" glyph-name="t" horiz-adv-x="242" d="M237 642V700H4V642H91V0H150V642H237V642Z" />
<glyph unicode="u" glyph-name="u" horiz-adv-x="265" d="M74 700H16V87Q16 52 42 26T103 0H162Q198 0 224 26Q249 51 249 87V700H191V117Q191 94 174 75Q157 58 133 58Q110 58 91 75Q74 94 74 117V700Z" />
<glyph unicode="v" glyph-name="v" horiz-adv-x="248" d="M71 700H7L94 0H153L240 700H176L124 204L71 700V700Z" />
<glyph unicode="w" glyph-name="w" horiz-adv-x="424" d="M75 700H11L98 0H157L212 443L268 0H326L413 700H349L297 204L244 700H180L128 204L75 700V700Z" />
<glyph unicode="x" glyph-name="x" horiz-adv-x="259" d="M74 700H13L99 350L13 0H74L130 225L185 0H246L160 350L246 700H185L130 475L74 700V700Z" />
<glyph unicode="y" glyph-name="y" horiz-adv-x="245" d="M67 700H6L93 350V0H152V350L239 700H178L123 475L67 700V700Z" />
<glyph unicode="z" glyph-name="z" horiz-adv-x="250" d="M8 700V642H166L8 0H241V58H84L241 700H8V700Z" />
<glyph unicode="{" glyph-name="braceleft" horiz-adv-x="189" d="M178 642V700H149Q113 700 87 674T61 612V438Q61 416 44 399Q27 381 3 381V323Q27 323 44 306T61 266V87Q61 52 87 26T149 0H178V58Q154 58 137 75T120 117V310Q118 329 107 340Q105 341 105 342T102
344Q91 352 77 352Q91 352 102 360L107 365Q118 376 120 394V583Q120 608 137 625T178 642Z" />
<glyph unicode="|" glyph-name="bar" horiz-adv-x="131" d="M114 699H16V-1H114V699V699Z" />
<glyph unicode="}" glyph-name="braceright" horiz-adv-x="189" d="M40 700H11V642Q35 642 52 625T69 583V394Q71 376 82 365L87 360Q98 352 112 352Q98 352 87 344Q85 343 85 342T82 340Q71 329 69 310V117Q69 92 52 75T11 58V0H40Q76 0 102 26T128 87V266Q128
289 145 306T186 323V381Q161 381 145 399Q128 416 128 438V612Q128 648 102 674T40 700Z" />
<glyph unicode="~" glyph-name="asciitilde" horiz-adv-x="284" d="M273 642V700L186 612L98 700L11 612V554L98 642L186 554L273 642V642Z" />
</font>
</defs>
</svg>
